<svg xmlns="http://www.w3.org/2000/svg" viewBox="0 0 129 129"><path d="M64.5 92.6a28 28 0 1 0 0-56 28 28 0 0 0 0 56zm0-47.9a19.9 19.9 0 1 1 0 39.8 19.9 19.9 0 0 1 0-39.8zM68.6 23.6V10.7c0-2.3-1.8-4.1-4.1-4.1s-4.1 1.8-4.1 4.1v12.9c0 2.3 1.8 4.1 4.1 4.1s4.1-1.8 4.1-4.1zM60.4 105.6v12.9c0 2.3 1.8 4.1 4.1 4.1s4.1-1.8 4.1-4.1v-12.9c0-2.3-1.8-4.1-4.1-4.1s-4.1 1.8-4.1 4.1zM96.4 38.5l9.1-9.1a4.1 4.1 0 0 0-5.8-5.8l-9.1 9.1a4.1 4.1 0 0 0 5.8 5.8zM23.5 105.6a4 4 0 0 0 2.9 1.2c1 0 2.1-.4 2.9-1.2l9.1-9.1a4.1 4.1 0 0 0-5.8-5.8l-9.1 9.1a4.1 4.1 0 0 0 0 5.8zM122.5 64.6a4 4 0 0 0-4.1-4.1h-12.9a4 4 0 0 0-4.1 4.1 4 4 0 0 0 4.1 4.1h12.9c2.2 0 4.1-1.8 4.1-4.1zM10.6 68.7h12.9a4 4 0 0 0 4.1-4.1 4 4 0 0 0-4.1-4.1H10.6a4 4 0 0 0-4.1 4.1c0 2.3 1.9 4.1 4.1 4.1zM102.6 106.8a4.1 4.1 0 0 0 2.9-7l-9.1-9.1a4.1 4.1 0 0 0-5.8 5.8l9.1 9.1c.8.8 1.9 1.2 2.9 1.2zM38.4 38.5a4.1 4.1 0 0 0 0-5.8l-9.1-9.1a4.1 4.1 0 0 0-5.8 5.8l9.1 9.1c.8.8 1.8 1.2 2.9 1.2s2.1-.4 2.9-1.2z"/></svg>